<?xml version="1.0" standalone="no"?>
<!DOCTYPE svg PUBLIC "-//W3C//DTD SVG 20010904//EN"
 "http://www.w3.org/TR/2001/REC-SVG-20010904/DTD/svg10.dtd">
<svg version="1.0" xmlns="http://www.w3.org/2000/svg"
 width="262.000000pt" height="263.000000pt" viewBox="0 0 262.000000 263.000000"
 preserveAspectRatio="xMidYMid meet">

<g transform="translate(0.000000,263.000000) scale(0.100000,-0.100000)"
fill="#000000" stroke="none">
<path d="M1121 2519 c-91 -15 -261 -69 -335 -105 -288 -143 -519 -403 -629
-709 -74 -206 -75 -567 -2 -790 97 -296 328 -562 610 -703 68 -34 212 -81 330
-108 108 -25 327 -26 444 -1 109 24 265 77 344 119 34 18 110 69 168 113 165
124 302 296 372 466 147 356 141 701 -17 1043 -106 229 -302 432 -540 557 -89
47 -242 97 -360 118 -70 13 -308 13 -385 0z m263 -150 c17 -20 26 -43 26 -65
l0 -34 -100 0 -100 0 0 36 c0 54 44 94 103 94 38 0 49 -5 71 -31z m-380 -35
c21 -8 20 -40 -1 -48 -9 -4 -23 0 -31 8 -13 12 -13 18 -2 30 14 18 13 18 34
10z m651 -24 c0 -29 -32 -41 -41 -16 -9 24 4 48 23 44 12 -2 18 -12 18 -28z
m-877 -74 c6 -29 -15 -43 -35 -24 -14 14 -14 20 -3 33 16 19 34 15 38 -9z
m1107 -6 c0 -29 -32 -41 -41 -16 -9 24 4 48 23 44 12 -2 18 -12 18 -28z m-467
-57 c-2 -22 -9 -29 -30 -31 l-28 -3 0 -93 c0 -129 6 -156 37 -156 21 0 24 -4
21 -27 -2 -16 -6 -27 -10 -25 -5 1 -53 2 -108 2 l-100 0 0 25 c0 21 5 25 29
25 l28 0 -1 123 -1 122 -27 3 c-24 3 -28 8 -28 33 l0 29 111 0 110 0 -3 -27z
m-798 -37 c19 -24 8 -61 -18 -64 -28 -4 -39 -27 -22 -47 25 -30 83 -18 197 40
165 84 253 91 372 30 l51 -25 0 -54 0 -54 -72 31 c-55 23 -89 31 -138 31 -59
1 -76 -4 -178 -53 -105 -50 -117 -53 -173 -49 -68 5 -103 26 -131 79 -23 44
-15 89 20 124 28 28 73 33 92 11z m1481 -15 c57 -58 29 -154 -55 -186 -69 -27
-129 -17 -244 41 -87 44 -103 49 -162 48 -48 0 -82 -7 -130 -28 -36 -15 -71
-30 -77 -33 -10 -4 -13 10 -13 51 l0 57 53 24 c76 35 150 47 213 36 29 -6 102
-35 163 -66 118 -59 155 -66 191 -37 27 22 19 42 -15 42 -18 0 -26 7 -31 25
-15 58 57 76 107 26z m-1673 -274 c4 -20 -25 -34 -40 -19 -15 15 -1 44 19 40
10 -2 19 -11 21 -21z m1817 -2 c0 -13 -8 -21 -22 -23 -17 -3 -23 2 -23 16 0
10 3 22 7 26 13 13 38 1 38 -19z m-1505 -20 c0 -8 30 -89 66 -181 36 -92 68
-180 71 -196 6 -29 5 -29 -32 -26 l-38 3 -35 95 c-19 52 -47 129 -63 170 -27
74 -27 75 -8 98 10 14 19 33 19 44 0 11 5 16 10 13 6 -3 10 -12 10 -20z m-130
1 c0 -7 8 -24 18 -37 19 -24 18 -25 -30 -149 -27 -69 -56 -145 -66 -170 -16
-41 -21 -45 -56 -48 -46 -4 -51 -28 45 226 66 173 89 219 89 178z m1313 -30
l18 -43 -49 -124 c-27 -68 -56 -142 -64 -164 -14 -35 -20 -40 -52 -43 -20 -2
-36 -2 -36 0 0 19 152 418 160 418 3 0 13 -20 23 -44z m110 32 c180 -450 167
-408 124 -408 -19 0 -39 6 -44 13 -14 17 -120 287 -124 312 -1 11 3 33 9 48 7
16 12 33 12 38 0 13 17 11 23 -3z m-1025 -33 c9 -19 19 -25 44 -25 l31 0 -21
-23 c-12 -13 -22 -36 -22 -51 0 -23 -3 -27 -17 -21 -23 10 -43 10 -66 0 -16
-6 -17 -4 -11 19 5 21 1 33 -17 52 l-22 24 26 0 c20 0 31 7 39 25 6 14 14 25
18 25 4 0 12 -11 18 -25z m652 -17 c0 -4 11 -8 25 -8 28 0 32 -12 10 -30 -8
-7 -15 -26 -15 -42 0 -25 -3 -29 -17 -23 -23 10 -43 10 -67 0 -17 -7 -18 -5
-13 17 5 18 1 33 -14 52 l-20 26 24 0 c16 0 31 10 42 27 17 25 18 26 31 8 8
-10 14 -22 14 -27z m-286 -185 c4 -93 14 -248 22 -346 8 -99 13 -185 10 -193
-8 -20 -184 -20 -192 0 -3 8 2 112 10 233 8 120 18 275 22 346 l7 127 57 0 57
0 7 -167z m-1018 112 c8 -20 -13 -45 -32 -38 -14 5 -19 34 -7 46 11 12 33 7
39 -8z m1961 -1 c4 -11 -1 -22 -12 -31 -16 -11 -21 -11 -33 1 -8 8 -12 22 -9
30 8 21 46 21 54 0z m-1990 -120 c3 -8 -2 -23 -11 -32 -15 -15 -17 -15 -32 0
-21 21 -11 48 16 48 11 0 23 -7 27 -16z m2027 0 c7 -19 -10 -44 -31 -44 -17 0
-27 24 -19 45 7 20 42 19 50 -1z m-2090 -150 c27 -10 20 -44 -9 -44 -18 0 -25
5 -25 18 0 29 9 36 34 26z m2134 -23 c-4 -20 -36 -27 -52 -11 -8 8 -6 15 7 25
23 17 49 9 45 -14z m-1458 -66 c0 -20 -45 -87 -76 -115 -99 -87 -230 -106
-343 -49 -64 32 -113 81 -136 137 l-14 32 284 0 c157 0 285 -2 285 -5z m1303
-12 c-40 -114 -146 -183 -278 -183 -115 0 -213 57 -260 151 l-25 49 285 0
c267 0 284 -1 278 -17z m-1949 -183 c67 -43 143 -117 174 -169 20 -35 27 -61
30 -126 2 -45 0 -85 -4 -88 -5 -2 -37 4 -71 14 -52 16 -68 27 -102 70 -22 28
-50 76 -61 107 -23 60 -40 222 -23 222 5 0 30 -14 57 -30z m2094 -85 c-9 -157
-90 -264 -225 -295 -31 -7 -32 -7 -38 32 -9 51 2 123 26 169 28 56 107 135
174 174 70 42 70 43 63 -80z m-709 17 c63 -31 101 -78 94 -116 -12 -59 -111
-116 -230 -133 l-43 -6 0 156 0 155 62 -14 c34 -8 87 -27 117 -42z m-549 -103
l0 -152 -51 7 c-157 21 -264 114 -212 184 42 57 151 111 226 112 l37 0 0 -151z
m258 -5 c16 -5 22 -14 22 -35 0 -15 5 -31 10 -34 6 -3 10 -33 10 -66 l0 -59
-120 0 -120 0 0 52 c0 28 5 68 11 87 7 20 13 42 15 49 4 13 128 17 172 6z
m-500 -143 c41 -32 87 -49 177 -65 l60 -11 3 -44 3 -44 -57 6 c-76 8 -193 65
-216 105 -17 28 -25 82 -12 82 3 0 22 -13 42 -29z m892 -7 c0 -67 -106 -136
-232 -151 l-48 -6 0 45 0 46 48 7 c95 13 185 47 211 79 19 23 21 20 21 -20z
m-1109 -15 c56 -44 70 -77 67 -155 l-3 -65 -34 23 c-60 40 -75 71 -79 154 -2
40 -1 74 3 74 4 0 25 -14 46 -31z m1329 -38 c0 -78 -21 -119 -80 -159 l-35
-23 -7 33 c-8 37 6 111 26 140 11 15 85 77 94 78 1 0 2 -31 2 -69z m-590 -214
c0 -191 -3 -197 -93 -197 -106 0 -107 2 -107 191 l0 159 100 0 100 0 0 -153z
m-897 129 c18 -7 52 -34 76 -59 l44 -45 -46 -7 c-67 -10 -138 16 -182 68 -19
22 -35 44 -35 49 0 13 108 9 143 -6z m1737 5 c0 -4 -19 -29 -42 -54 -30 -31
-56 -49 -88 -57 -41 -11 -105 -8 -118 5 -10 10 82 95 113 104 40 12 135 13
135 2z m-1296 -126 c10 -20 21 -58 24 -83 l5 -45 -44 24 c-60 33 -89 79 -89
141 l0 50 43 -25 c25 -14 49 -39 61 -62z m820 11 c-10 -50 -37 -87 -76 -107
-56 -29 -62 -26 -54 28 8 58 25 85 78 124 l42 30 8 -22 c5 -13 6 -37 2 -53z
m-999 -81 c18 -9 43 -27 55 -40 l23 -24 -29 -11 c-79 -30 -144 -24 -223 21
-61 35 -59 39 31 64 58 16 92 13 143 -10z m1240 1 c20 -7 37 -17 38 -22 1 -5
-22 -22 -51 -37 -67 -36 -143 -45 -196 -23 l-39 16 24 26 c57 61 126 73 224
40z m-945 -121 c14 -9 -31 -59 -72 -81 -45 -23 -154 -17 -187 12 -7 6 43 45
84 65 31 15 54 19 101 16 34 -3 67 -8 74 -12z m639 5 c19 -5 50 -24 68 -42
l33 -32 -22 -13 c-29 -15 -132 -17 -161 -2 -32 16 -77 61 -77 75 0 22 101 31
159 14z m-304 -122 c-13 -44 -52 -73 -96 -73 -34 0 -46 6 -70 33 -50 56 -43
62 72 62 99 0 100 0 94 -22z"/>
</g>
</svg>
